<svg version="1.2" xmlns="http://www.w3.org/2000/svg" viewBox="0 0 5000 5000" width="1000" height="1000">
	<style>
		.s0 { fill: #24666d } 
		.s1 { fill: #114149 } 
		.s2 { fill: #c5c4c4 } 
		.s3 { fill: #002a3f } 
		.s4 { fill: #022640 } 
		.s5 { fill: #154b59 } 
		.s6 { fill: #88b5c0 } 
		.s7 { fill: #242d3c } 
		.s8 { fill: #546f82 } 
		.s9 { fill: #c1b49f } 
		.s10 { fill: #d0c2a7 } 
		.s11 { fill: #dfdac3 } 
		.s12 { fill: #eee7d8 } 
		.s13 { fill: #fffff9 } 
		.s14 { fill: #ef6422 } 
	</style>
	<g id="Layer 1">
		<path class="s0" d="m3918.7 664.36c0 0-34.21 11.21-58.98-2.95v174c0 0 28.9-11.21 57.8 4.72z"/>
		<path class="s0" d="m4070.28 610.1q0.34 2.27 0.69 4.44 0.24-2.22 0.49-4.44c0 0 12.39 60.75 24.19 40.69l0.23 14.17c1.7-1.3 2.72-2.96 2.72-2.96l-1.39 83.46 1.39 83.46c0 0-1.02-1.66-2.72-2.96l-0.23 14.17c-11.8-20.06-24.19 40.7-24.19 40.7q-0.25-2.22-0.49-4.44-0.35 2.16-0.69 4.44c0 0-6.37-56.86-6.21-135.37-0.16-78.51 6.21-135.36 6.21-135.36z"/>
		<g>
			<path class="s1" d="m4320.57 667.45l0.13 172.06c-57.91 51.67-116.32 62.18-159.39 60.2v-298.95c95.84-3.69 159.26 66.69 159.26 66.69z"/>
			<path class="s1" d="m4093.66 615.48c19.19-7.65 37.58-11.98 55-13.81v297.07c-33.51-3.55-55-13.9-55-13.9z"/>
			<path class="s0" d="m4161.31 600.76v298.95q-6.58-0.31-12.65-0.96v-297.08q6.42-0.67 12.65-0.91z"/>
		</g>
		<path class="s1" d="m4072.05 624.84l-1.18-16.51c0 0-42.46-29.49-144.5-20.06 0 0-20.06 1.18-14.75 159.85 0 0-11.2 166.32 20.65 164.56 0 0 92.01 11.2 137.42-18.29 0 0 5.31-23 3.55-33.03-1.78-10.03-1.19-236.52-1.19-236.52z"/>
		<path class="s1" d="m3751.02 824.49c0 7.99 6.47 14.45 14.46 14.45h90.22c7.99 0 14.46-6.46 14.46-14.45v-150.38c0-7.99-6.47-14.47-14.46-14.47h-90.22c-7.99 0-14.46 6.48-14.46 14.47z"/>
		<path class="s1" d="m3772.84 882.29c0 7.99 6.48 14.46 14.46 14.46h46.58c7.98 0 14.46-6.47 14.46-14.46v-41.26c0-7.99-6.48-14.47-14.46-14.47h-46.58c-7.98 0-14.46 6.48-14.46 14.47z"/>
		<g>
			<path class="s1" d="m4773.92 756.77c0 92.84-75.26 168.1-168.1 168.1-92.84 0-168.1-75.26-168.1-168.1 0-92.84 75.26-168.1 168.1-168.1 92.84 0 168.1 75.26 168.1 168.1z"/>
			<path class="s0" d="m4511.16 756.77c0 52.28 42.38 94.66 94.66 94.66 52.28 0 94.66-42.38 94.66-94.66 0-52.28-42.38-94.67-94.66-94.67-52.28 0-94.66 42.39-94.66 94.67z"/>
			<path class="s2" d="m4539.47 756.77c0 36.65 29.7 66.35 66.35 66.35 36.65 0 66.35-29.7 66.35-66.35 0-36.64-29.7-66.36-66.35-66.36-36.65 0-66.35 29.72-66.35 66.36z"/>
			<path class="s0" d="m4568.07 902.81c0 7.98 6.47 14.46 14.46 14.46h46.57c7.99 0 14.47-6.48 14.47-14.46v-41.27c0-7.98-6.48-14.46-14.47-14.46h-46.57c-7.99 0-14.46 6.48-14.46 14.46z"/>
		</g>
		<path class="s0" d="m3790.24 891.32h40.7v1509h-40.7z"/>
		<path class="s0" d="m4626 910h-40v520h-0.54c0 260-36.99 346.13-121.4 477.09-109.68 170.18-326.27 157.12-455.67 149.51-23.81-1.4-44.38-2.63-61.73-2.63-68.27 0-102.02 35.54-118.32 65.38-17.1 31.31-18.28 62.67-18.32 63.99l-0.01 160.66h39.99v-159.62c0-2.59 1.97-25.15 14.19-46.84 16.18-28.71 43.96-43.27 82.39-43.27 16.16 0 36.22 1.19 59.4 2.55 67.09 3.94 159 9.36 248.85-9.42 49.81-10.42 94.38-27.4 132.46-50.55 44.64-27.15 81.87-63.5 110.67-108.17 45.36-70.38 77.64-129.49 98.36-204.29 18.96-68.47 27.94-148.39 29.28-264.39h0.4z"/>
		<path class="s0" d="m2944.3 4449.67c-106.3 0-186.77-27.78-239.19-82.58-62.21-65.04-61.36-144.48-61.11-152.35v-150.74h39v151.52l-0.02 0.44c-0.02 0.62-1.97 69.9 50.76 124.63 44.8 46.51 115.64 70.08 210.56 70.08 88.9 0 153.16-22.89 191-68.04 51.27-61.15 37.16-144.76 37.01-145.6l-0.3-1.68-0.01-1.77v-2010.02c-1.66-16.66-16.41-185.64 59.77-267.26 28.61-30.65 66.02-45.32 111.18-43.6 41.08 1.57 75.27 17.48 101.63 47.27 69.08 78.07 59.5 226.48 58.42 240.51v827.29c0 0.36 0.44 43.06 19.09 84.51 23.54 52.3 64.93 78.81 123.03 78.81 58.71 0 102.08-25.11 128.91-74.65 19.72-36.42 23.55-73.83 23.97-78.68v-300.76h39v302.15l-0.04 0.63c-0.12 1.92-3.32 47.75-27.95 93.95-23.43 43.96-70.89 96.36-163.89 96.36-74.26 0-129.28-35.62-159.13-103.01-21.66-48.9-21.99-97.24-21.99-99.28v-828.92l0.07-0.81c0.12-1.43 11.23-144.62-48.74-212.31-19.29-21.77-43.45-32.92-73.87-34.08-33.8-1.29-60.32 8.91-81.13 31.19-66.34 71-49.62 235.95-49.44 237.61l0.11 1.03v1.04 2009.43c2.27 14.6 13.37 104.75-45.51 175.35-45.57 54.64-119.99 82.34-221.19 82.34z"/>
		<path class="s1" d="m3873 2698.63c0 29.16-23.62 52.37-52.78 52.37h-0.32c-29.16 0-52.9-23.21-52.9-52.37v-384.52c0-29.16 23.74-53.11 52.9-53.11h0.32c29.16 0 52.78 23.95 52.78 53.11z"/>
		<g>
			<path class="s1" d="m2583 3827v171.66c0 47.52 37.99 86.03 85.5 86.03 47.51 0 85.5-38.52 85.5-86.03v-171.66z"/>
		</g>
		<g>
			<path class="s3" d="m2710.57 904.48l-646.97-55.13h-686.23c-111.11 0-202.01 90.93-202.01 202.01v2641.72c0 111.19 90.9 201.99 202.01 201.88h686.23 722.09c111.28 0 202.04-90.87 202.04-202.03l-75.11-2586.44c0-111.23-90.94-202.01-202.05-202.01z"/>
			<path class="s4" d="m1789.75 3514.22h622.95v274.64h-622.95z"/>
			<g>
				<path class="s4" d="m2689.87 1015.18c0 55.25-234.66 100.04-524.13 100.04-289.48 0-524.14-44.79-524.14-100.04 0-55.26 234.66-100.05 524.14-100.05 289.47 0 524.13 44.79 524.13 100.05z"/>
			</g>
			<path class="s5" d="m2785.91 847.98h-646.98v112.72h337.18c26.23 0 47.48 21.22 47.48 47.43 0 26.24-21.25 47.47-47.48 47.47h-337.18v104.34h663.84c24.56 0 44.66 20.09 44.66 44.66v2215.5c0 24.57-20.1 44.65-44.66 44.65h-663.84v68.38c55.85 9.36 98.43 57.77 98.43 116.25 0 58.5-42.58 106.97-98.43 116.33v72.75h646.98c111.28 0 202.04-90.86 202.04-202.03v-2586.44c0-111.23-90.94-202.01-202.04-202.01zm-460.5 2848.61c-26.08 0-47.17-21.13-47.17-47.21 0-26.03 21.09-47.12 47.17-47.12 26.04 0 47.16 21.09 47.16 47.12 0 26.08-21.12 47.21-47.16 47.21z"/>
			<path class="s6" d="m2119.34 3767.46c-65.24 0-118.05-52.86-118.05-118.09 0-65.17 52.81-118.01 118.05-118.01 6.67 0 13.21 0.69 19.59 1.77v-68.38h-700.58c-24.56 0-44.65-20.09-44.65-44.66v-2215.5c0-24.56 20.09-44.65 44.65-44.65h700.58v-104.35h-376.39c-26.21 0-47.48-21.22-47.48-47.47 0-26.2 21.27-47.42 47.48-47.42h376.39v-112.73h-686.23c-111.11 0-202.02 90.94-202.02 202.03v2586.58c0 111.19 90.91 201.99 202.02 201.88h686.23v-72.75c-6.38 1.05-12.92 1.75-19.59 1.75zm-206.1-70.87c-26.04 0-47.18-21.13-47.18-47.21 0-26.03 21.14-47.12 47.18-47.12 26.06 0 47.19 21.09 47.19 47.12 0 26.08-21.13 47.21-47.19 47.21z"/>
			<g>
				<g>
					<path class="s7" d="m2802.77 1159.94h-663.84-700.58c-24.56 0-44.65 20.09-44.65 44.65v235.06 1980.45c0 7.39 1.99 14.27 5.2 20.44l1433.24-2269.28c-7.89-6.96-18.1-11.32-29.37-11.32z"/>
					<path class="s7" d="m2832.14 1171.26l-1433.24 2269.28c7.47 14.3 22.28 24.21 39.45 24.21h700.58 663.84c24.56 0 44.66-20.09 44.66-44.66v-1980.44-235.06c0-13.29-6-25.14-15.29-33.33z"/>
				</g>
			</g>
		</g>
		<g>
			<g>
				<g>
					<path class="s8" d="m2828.3 1491.05h-2489.09v1859.55h1149.86c18.95 29.21 54.21 48.93 94.69 48.93 40.49 0 75.74-19.72 94.69-48.93h1149.86z"/>
					<path class="s9" d="m395.97 1523.53h2375.58v1756.92h-2375.58z"/>
					<path class="s10" d="m395.97 1488.76v1796.65c0 0 571.6-268.01 1180.33-4.62v-1791.68c0 0-669.53-84.72-1180.33-0.35z"/>
					<path class="s11" d="m435.48 1459.01v1796.63c0 0 642.37-262.85 1141 25.01l1.69-1791.36c0 0-931.89-149.38-1142.69-30.28z"/>
					<path class="s12" d="m540.87 1235.66l4.06 1786.73c0 0 707.31-69.57 1031.62 258l-0.65-1791.1c0 0-544.49-347.93-1035.03-253.63z"/>
					<path class="s13" d="m761.58 1087.04v1811.53c0 0 462.16-79.41 814.83 382.16l3.75-1795.66c0 0-291.58-447.67-818.58-398.03z"/>
				</g>
				<g>
					<path class="s10" d="m2757.94 1497.09v1796.65c0 0-577.64-275.97-1181.67-12.93l6.03-1783.72c0 0 664.85-84.37 1175.64 0z"/>
					<path class="s11" d="m2722.69 1467.18v1796.64c0 0-647.64-271.12-1146.28 16.74l3.09-1783.61c0 0 932.4-148.88 1143.19-29.77z"/>
					<path class="s12" d="m2611.93 1241.83l-4.06 1786.72c0 0-707.08-75.47-1031.39 252.1l1.69-1790.66c0 0 543.22-342.47 1033.76-248.16z"/>
				</g>
			</g>
			<g>
				<path class="s11" d="m1543.01 1597.8c-2.76-4.24-68.95-104.81-195.2-206.35-74.04-59.56-153.48-107.02-236.12-141.07-81.67-33.65-166.64-54.13-253.4-61.27v50.19c205.75 17.87 364.27 112.13 464.56 192.52 89.29 71.57 148.08 143.88 173.09 177.37 16.06 18.98 33.98 43.31 51.33 73.42l0.16-78.02z"/>
			</g>
			<g>
				<path class="s11" d="m1543.01 1787.16c-2.75-4.23-68.95-104.8-195.2-206.34-74.04-59.56-153.48-107.02-236.11-141.07-81.68-33.65-166.65-54.13-253.41-61.27v50.19c205.75 17.87 364.27 112.13 464.56 192.52 89.29 71.57 148.08 143.88 173.09 177.36 16.06 18.99 33.98 43.31 51.33 73.43l0.16-78.02z"/>
			</g>
			<g>
				<path class="s11" d="m1543.01 1976.53c-2.75-4.23-68.95-104.8-195.2-206.34-74.04-59.56-153.48-107.03-236.11-141.07-81.68-33.65-166.65-54.14-253.41-61.27v50.19c205.75 17.87 364.27 112.13 464.56 192.52 89.29 71.57 148.08 143.87 173.09 177.36 16.06 18.99 33.98 43.31 51.33 73.43l0.16-78.03z"/>
			</g>
			<g>
				<path class="s11" d="m1543.01 2165.9c-2.75-4.23-68.95-104.8-195.2-206.35-74.04-59.55-153.48-107.01-236.11-141.06-81.68-33.65-166.65-54.14-253.41-61.27v50.19c205.75 17.86 364.27 112.13 464.56 192.52 89.29 71.57 148.08 143.87 173.09 177.36 16.06 18.99 33.98 43.31 51.33 73.43l0.16-78.03z"/>
			</g>
			<g>
				<path class="s11" d="m1537.24 2510.43c-3.05-3.94-76.07-97.6-209-186.29-77.97-52.01-160.46-91.44-245.2-117.18-83.75-25.45-169.86-37.44-256.83-35.96l3.53 50.02c206.29-2.58 370.87 75.65 476.46 145.83 93.99 62.47 157.65 128.71 184.93 159.6 17.33 17.33 36.89 39.79 56.3 68.08l-5.31-77.77z"/>
			</g>
			<g>
				<path class="s11" d="m1537.24 2699.8c-3.05-3.94-76.07-97.6-209-186.29-77.97-52.01-160.46-91.44-245.2-117.18-83.75-25.44-169.86-37.44-256.83-35.96l3.53 50.02c206.29-2.58 370.87 75.65 476.46 145.83 93.99 62.47 157.65 128.7 184.93 159.6 17.33 17.33 36.9 39.79 56.3 68.08l-5.31-77.77z"/>
			</g>
			<g>
				<path class="s11" d="m1537.24 2889.17c-3.04-3.95-76.07-97.61-209-186.29-77.97-52.01-160.46-91.44-245.2-117.18-83.75-25.45-169.86-37.45-256.83-35.96l3.53 50.02c206.29-2.58 370.87 75.65 476.46 145.83 93.99 62.47 157.65 128.7 184.93 159.59 17.33 17.34 36.89 39.8 56.3 68.09l-5.31-77.77z"/>
			</g>
			<g>
				<path class="s11" d="m1537.24 3078.54c-3.05-3.94-76.07-97.61-209-186.29-77.97-52.02-160.47-91.44-245.2-117.19-83.75-25.44-169.86-37.44-256.83-35.95l3.53 50.01c206.28-2.57 370.87 75.66 476.46 145.84 93.99 62.47 157.65 128.7 184.93 159.6 17.33 17.32 36.9 39.79 56.3 68.08l-5.31-77.77z"/>
			</g>
			<g>
				<path class="s11" d="m1537.24 2321.06c-3.05-3.94-76.07-97.6-209-186.29-77.96-52.01-160.46-91.44-245.2-117.18-83.75-25.45-169.86-37.44-256.83-35.96l3.53 50.02c206.29-2.58 370.87 75.65 476.46 145.83 93.99 62.48 157.65 128.71 184.93 159.6 17.33 17.33 36.89 39.79 56.3 68.08l-5.31-77.77z"/>
			</g>
			<g>
				<path class="s11" d="m1884.38 1509.21c144.62-56.06 363.44-121.73 584.67-116.23 23.79 0.59 47.25 2.03 70.31 4.25l0.98-55.7c-23.09-2.15-46.55-3.56-70.31-4.16-227.79-5.66-452.1 61.57-600.17 118.96-100.7 39.04-179.61 78.24-225.45 102.64v60.55l6.65-3c41.93-22.79 125.39-65.47 233.32-107.31z"/>
				<path class="s11" d="m1884.38 1693.29c144.62-56.06 363.44-121.72 584.67-116.22 23.79 0.59 47.25 2.03 70.31 4.25l0.98-55.7c-23.09-2.16-46.55-3.57-70.31-4.16-227.79-5.66-452.1 61.56-600.17 118.96-100.7 39.03-179.61 78.24-225.45 102.64v60.55l6.65-3.01c41.94-22.78 125.39-65.47 233.32-107.31z"/>
				<path class="s11" d="m1884.38 1877.37c144.62-56.05 363.44-121.72 584.67-116.22 23.79 0.59 47.25 2.03 70.31 4.25l0.98-55.7c-23.09-2.15-46.55-3.56-70.31-4.16-227.79-5.66-452.1 61.57-600.17 118.96-100.7 39.04-179.61 78.24-225.45 102.64v60.55l6.65-3.01c41.94-22.78 125.39-65.46 233.32-107.31z"/>
				<path class="s11" d="m1884.38 2061.46c144.62-56.06 363.44-121.73 584.67-116.22 23.79 0.58 47.25 2.03 70.31 4.25l0.98-55.7c-23.09-2.16-46.55-3.57-70.31-4.16-227.79-5.67-452.1 61.56-600.17 118.96-100.7 39.03-179.61 78.24-225.45 102.64v60.55l6.65-3.01c41.94-22.78 125.39-65.47 233.32-107.31z"/>
				<path class="s11" d="m1890.98 2237.44c147.28-45.22 369.13-94.52 589.63-72.61 23.72 2.36 47.05 5.54 69.95 9.47l3.91-55.52c-22.93-3.87-46.27-7.02-69.95-9.37-227.05-22.56-454.46 27.89-605.25 74.18-105.87 32.5-188.58 66.91-234.86 87.7v58.91l8.06-2.98c43.05-19.62 128.59-56.04 238.51-89.78z"/>
				<path class="s11" d="m1890.98 2421.52c147.28-45.21 369.13-94.51 589.63-72.6 23.72 2.35 47.05 5.53 69.95 9.46l3.91-55.52c-22.94-3.87-46.27-7.01-69.95-9.37-227.05-22.56-454.46 27.89-605.26 74.18-105.86 32.5-188.57 66.91-234.85 87.7v58.91l8.06-2.98c43.05-19.62 128.59-56.03 238.51-89.78z"/>
				<path class="s11" d="m1890.98 2605.61c147.28-45.22 369.13-94.52 589.63-72.61 23.72 2.36 47.05 5.54 69.95 9.46l3.91-55.51c-22.94-3.87-46.27-7.02-69.95-9.37-227.05-22.56-454.46 27.89-605.26 74.18-105.86 32.5-188.57 66.9-234.85 87.7v58.91l8.06-2.98c43.05-19.62 128.59-56.04 238.51-89.79z"/>
				<path class="s11" d="m1890.98 2789.69c147.28-45.22 369.13-94.52 589.63-72.6 23.72 2.35 47.05 5.53 69.95 9.46l3.91-55.52c-22.94-3.87-46.27-7.01-69.96-9.37-227.05-22.56-454.45 27.89-605.25 74.19-105.86 32.5-188.57 66.9-234.85 87.69v58.91l8.05-2.98c43.06-19.62 128.6-56.03 238.52-89.78z"/>
				<path class="s11" d="m1879.27 2919.93c-105.87 32.5-188.58 66.9-234.86 87.69v58.91l8.06-2.97c43.05-19.63 128.59-56.04 238.51-89.79 147.28-45.21 369.13-94.51 589.63-72.6 23.72 2.35 47.05 5.54 69.95 9.46l3.91-55.52c-22.93-3.86-46.27-7.01-69.95-9.37-227.05-22.55-454.46 27.89-605.25 74.19z"/>
			</g>
			<g>
				<g>
					<path class="s14" d="m1699.29 2314.68l74.98 104.4 0.2-1031.82c-64.31 26.07-115.88 50.31-149.99 67.26v964.56z"/>
				</g>
			</g>
		</g>
	</g>
</svg>